<mxfile host="65bd71144e">
    <diagram id="B-lVAMX0ywGX5zVq6d2T" name="Page-1">
        <mxGraphModel dx="1980" dy="1126" grid="1" gridSize="10" guides="1" tooltips="1" connect="1" arrows="1" fold="1" page="1" pageScale="1" pageWidth="850" pageHeight="1100" math="0" shadow="0">
            <root>
                <mxCell id="0"/>
                <mxCell id="1" parent="0"/>
                <mxCell id="35" value="" style="group" parent="1" vertex="1" connectable="0">
                    <mxGeometry x="10" y="150" width="790" height="250" as="geometry"/>
                </mxCell>
                <mxCell id="27" value="" style="rounded=0;whiteSpace=wrap;html=1;" parent="35" vertex="1">
                    <mxGeometry x="177.63387185627394" y="57.142857142857146" width="177.63387185627394" height="85.71428571428572" as="geometry"/>
                </mxCell>
                <mxCell id="29" value="" style="rounded=0;whiteSpace=wrap;html=1;" parent="35" vertex="1">
                    <mxGeometry x="355.2677437125479" y="57.142857142857146" width="177.63387185627394" height="85.71428571428572" as="geometry"/>
                </mxCell>
                <mxCell id="30" value="" style="rounded=0;whiteSpace=wrap;html=1;" parent="35" vertex="1">
                    <mxGeometry x="532.9016155688219" y="57.142857142857146" width="177.63387185627394" height="85.71428571428572" as="geometry"/>
                </mxCell>
                <mxCell id="106" value="" style="rounded=0;whiteSpace=wrap;html=1;" parent="35" vertex="1">
                    <mxGeometry x="355.2677437125479" y="85.71428571428572" width="88.81693592813697" height="28.571428571428573" as="geometry"/>
                </mxCell>
                <mxCell id="108" value="" style="rounded=0;whiteSpace=wrap;html=1;" parent="35" vertex="1">
                    <mxGeometry x="444.0846796406849" y="85.71428571428572" width="88.81693592813697" height="28.571428571428573" as="geometry"/>
                </mxCell>
                <mxCell id="120" value="" style="rounded=0;whiteSpace=wrap;html=1;" parent="35" vertex="1">
                    <mxGeometry x="355.2677437125479" y="57.142857142857146" width="177.63387185627394" height="28.571428571428573" as="geometry"/>
                </mxCell>
                <mxCell id="171" value="" style="rounded=0;whiteSpace=wrap;html=1;" parent="35" vertex="1">
                    <mxGeometry x="355.2677437125479" y="114.28571428571429" width="44.408467964068485" height="28.571428571428573" as="geometry"/>
                </mxCell>
                <mxCell id="188" value="" style="group" vertex="1" connectable="0" parent="35">
                    <mxGeometry x="38.07" width="751.93" height="228.57142857142858" as="geometry"/>
                </mxCell>
                <mxCell id="25" value="" style="rounded=0;whiteSpace=wrap;html=1;" parent="188" vertex="1">
                    <mxGeometry width="751.9300000000001" height="228.57142857142858" as="geometry"/>
                </mxCell>
                <mxCell id="28" value="&lt;div style=&quot;text-align: center&quot;&gt;&lt;span style=&quot;font-size: 26px&quot;&gt;&lt;font face=&quot;helvetica&quot;&gt;&lt;u&gt;TopStake Stakes&lt;/u&gt;&lt;/font&gt;&lt;/span&gt;&lt;/div&gt;" style="text;whiteSpace=wrap;html=1;" parent="188" vertex="1">
                    <mxGeometry x="272.07993421052635" y="22.857142857142858" width="207.77013157894743" height="34.285714285714285" as="geometry"/>
                </mxCell>
                <mxCell id="98" value="" style="rounded=0;whiteSpace=wrap;html=1;" parent="188" vertex="1">
                    <mxGeometry x="187.98250000000002" y="137.14285714285714" width="37.596500000000006" height="45.714285714285715" as="geometry"/>
                </mxCell>
                <mxCell id="99" value="" style="rounded=0;whiteSpace=wrap;html=1;" parent="188" vertex="1">
                    <mxGeometry x="300.77200000000005" y="137.14285714285714" width="37.596500000000006" height="45.714285714285715" as="geometry"/>
                </mxCell>
                <mxCell id="100" value="" style="rounded=0;whiteSpace=wrap;html=1;" parent="188" vertex="1">
                    <mxGeometry x="263.1755" y="137.14285714285714" width="37.596500000000006" height="45.714285714285715" as="geometry"/>
                </mxCell>
                <mxCell id="101" value="" style="rounded=0;whiteSpace=wrap;html=1;" parent="188" vertex="1">
                    <mxGeometry x="225.57900000000004" y="137.14285714285714" width="37.596500000000006" height="45.714285714285715" as="geometry"/>
                </mxCell>
                <mxCell id="110" value="" style="rounded=0;whiteSpace=wrap;html=1;" parent="188" vertex="1">
                    <mxGeometry x="563.9475000000001" y="182.85714285714286" width="37.596500000000006" height="45.714285714285715" as="geometry"/>
                </mxCell>
                <mxCell id="111" value="" style="rounded=0;whiteSpace=wrap;html=1;" parent="188" vertex="1">
                    <mxGeometry x="704.934375" y="182.85714285714286" width="46.995625000000004" height="45.714285714285715" as="geometry"/>
                </mxCell>
                <mxCell id="112" value="" style="rounded=0;whiteSpace=wrap;html=1;" parent="188" vertex="1">
                    <mxGeometry x="695.53525" y="182.85714285714286" width="9.399125000000002" height="45.714285714285715" as="geometry"/>
                </mxCell>
                <mxCell id="113" value="" style="rounded=0;whiteSpace=wrap;html=1;" parent="188" vertex="1">
                    <mxGeometry x="601.5440000000001" y="182.85714285714286" width="93.99125000000001" height="45.714285714285715" as="geometry"/>
                </mxCell>
                <mxCell id="114" value="" style="rounded=0;whiteSpace=wrap;html=1;" parent="188" vertex="1">
                    <mxGeometry x="563.9475000000001" y="137.14285714285714" width="46.995625000000004" height="45.714285714285715" as="geometry"/>
                </mxCell>
                <mxCell id="115" value="" style="rounded=0;whiteSpace=wrap;html=1;" parent="188" vertex="1">
                    <mxGeometry x="704.934375" y="137.14285714285714" width="46.995625000000004" height="45.714285714285715" as="geometry"/>
                </mxCell>
                <mxCell id="116" value="" style="rounded=0;whiteSpace=wrap;html=1;" parent="188" vertex="1">
                    <mxGeometry x="657.93875" y="137.14285714285714" width="46.995625000000004" height="45.714285714285715" as="geometry"/>
                </mxCell>
                <mxCell id="117" value="" style="rounded=0;whiteSpace=wrap;html=1;" parent="188" vertex="1">
                    <mxGeometry x="610.943125" y="137.14285714285714" width="46.995625000000004" height="45.714285714285715" as="geometry"/>
                </mxCell>
                <mxCell id="118" value="&lt;span&gt;Item #1&lt;/span&gt;" style="rounded=0;whiteSpace=wrap;html=1;" parent="188" vertex="1">
                    <mxGeometry y="91.42857142857143" width="187.98250000000002" height="137.14285714285714" as="geometry"/>
                </mxCell>
                <mxCell id="119" value="&lt;span style=&quot;font-family: &amp;#34;helvetica&amp;#34;&quot;&gt;Item #2&lt;/span&gt;" style="rounded=0;whiteSpace=wrap;html=1;" parent="188" vertex="1">
                    <mxGeometry x="187.98250000000002" y="91.42857142857143" width="187.98250000000002" height="45.714285714285715" as="geometry"/>
                </mxCell>
                <mxCell id="163" value="&lt;span style=&quot;font-family: &amp;#34;helvetica&amp;#34;&quot;&gt;Item #3&lt;/span&gt;" style="rounded=0;whiteSpace=wrap;html=1;" parent="188" vertex="1">
                    <mxGeometry x="375.96500000000003" y="91.42857142857143" width="187.98250000000002" height="45.714285714285715" as="geometry"/>
                </mxCell>
                <mxCell id="164" value="&lt;span style=&quot;font-family: &amp;#34;helvetica&amp;#34;&quot;&gt;Item #4&lt;/span&gt;" style="rounded=0;whiteSpace=wrap;html=1;" parent="188" vertex="1">
                    <mxGeometry x="563.9475000000001" y="91.42857142857143" width="187.98250000000002" height="45.714285714285715" as="geometry"/>
                </mxCell>
                <mxCell id="165" value="" style="rounded=0;whiteSpace=wrap;html=1;" parent="188" vertex="1">
                    <mxGeometry x="338.3685000000001" y="137.14285714285714" width="37.596500000000006" height="45.714285714285715" as="geometry"/>
                </mxCell>
                <mxCell id="166" value="" style="rounded=0;whiteSpace=wrap;html=1;" parent="188" vertex="1">
                    <mxGeometry x="187.98250000000002" y="182.85714285714286" width="28.197375000000005" height="45.714285714285715" as="geometry"/>
                </mxCell>
                <mxCell id="167" value="" style="rounded=0;whiteSpace=wrap;html=1;" parent="188" vertex="1">
                    <mxGeometry x="300.77200000000005" y="182.85714285714286" width="9.399125000000002" height="45.714285714285715" as="geometry"/>
                </mxCell>
                <mxCell id="168" value="" style="rounded=0;whiteSpace=wrap;html=1;" parent="188" vertex="1">
                    <mxGeometry x="263.1755" y="182.85714285714286" width="37.596500000000006" height="45.714285714285715" as="geometry"/>
                </mxCell>
                <mxCell id="169" value="" style="rounded=0;whiteSpace=wrap;html=1;" parent="188" vertex="1">
                    <mxGeometry x="216.179875" y="182.85714285714286" width="46.995625000000004" height="45.714285714285715" as="geometry"/>
                </mxCell>
                <mxCell id="170" value="" style="rounded=0;whiteSpace=wrap;html=1;" parent="188" vertex="1">
                    <mxGeometry x="310.171125" y="182.85714285714286" width="65.793875" height="45.714285714285715" as="geometry"/>
                </mxCell>
                <mxCell id="172" value="" style="rounded=0;whiteSpace=wrap;html=1;" parent="188" vertex="1">
                    <mxGeometry x="422.9606250000001" y="182.85714285714286" width="140.98687500000003" height="45.714285714285715" as="geometry"/>
                </mxCell>
                <mxCell id="217" value="" style="rounded=0;whiteSpace=wrap;html=1;" vertex="1" parent="188">
                    <mxGeometry x="375.97" y="137.14" width="54.03" height="45.71" as="geometry"/>
                </mxCell>
                <mxCell id="38" value="" style="edgeStyle=none;html=1;fontSize=9;entryX=0.5;entryY=0;entryDx=0;entryDy=0;" parent="1" source="37" edge="1" target="118">
                    <mxGeometry relative="1" as="geometry">
                        <mxPoint x="120" y="190" as="targetPoint"/>
                    </mxGeometry>
                </mxCell>
                <mxCell id="37" value="&lt;font&gt;&lt;span style=&quot;font-size: 14px&quot;&gt;Add Stake: Item #1,&amp;nbsp;Account&amp;nbsp;&lt;/span&gt;&lt;font style=&quot;font-size: 14px&quot;&gt;0x0fb&lt;/font&gt;&lt;span style=&quot;font-size: 14px&quot;&gt;, Amount x&lt;/span&gt;&lt;/font&gt;" style="whiteSpace=wrap;html=1;fontSize=26;" parent="1" vertex="1">
                    <mxGeometry x="232" y="30" width="387" height="40" as="geometry"/>
                </mxCell>
                <mxCell id="174" value="" style="edgeStyle=none;html=1;entryX=0.5;entryY=0;entryDx=0;entryDy=0;exitX=0.5;exitY=1;exitDx=0;exitDy=0;" edge="1" parent="1" source="118" target="176">
                    <mxGeometry relative="1" as="geometry">
                        <mxPoint x="609.4700000000003" y="540" as="targetPoint"/>
                        <Array as="points">
                            <mxPoint x="142" y="440"/>
                            <mxPoint x="420" y="440"/>
                        </Array>
                    </mxGeometry>
                </mxCell>
                <mxCell id="189" value="" style="group" vertex="1" connectable="0" parent="1">
                    <mxGeometry x="125.5" y="500" width="610" height="580" as="geometry"/>
                </mxCell>
                <mxCell id="199" value="" style="edgeStyle=none;html=1;fontSize=14;entryX=1;entryY=0.5;entryDx=0;entryDy=0;" edge="1" parent="189" source="176" target="192">
                    <mxGeometry relative="1" as="geometry"/>
                </mxCell>
                <mxCell id="216" value="" style="edgeStyle=none;html=1;fontSize=14;entryX=0;entryY=0.5;entryDx=0;entryDy=0;" edge="1" parent="189" source="176" target="208">
                    <mxGeometry relative="1" as="geometry"/>
                </mxCell>
                <mxCell id="176" value="&lt;span&gt;Staker Id: 2&lt;/span&gt;&lt;span&gt;&lt;br&gt;&lt;/span&gt;" style="whiteSpace=wrap;html=1;fontSize=21;" vertex="1" parent="189">
                    <mxGeometry x="234.5" y="187.56" width="130" height="34.88" as="geometry"/>
                </mxCell>
                <mxCell id="179" value="&lt;pre style=&quot;font-size: 21px&quot;&gt;&lt;br&gt;&lt;/pre&gt;" style="whiteSpace=wrap;html=1;" vertex="1" parent="189">
                    <mxGeometry width="200" height="580" as="geometry"/>
                </mxCell>
                <mxCell id="180" value="&lt;pre style=&quot;font-size: 21px&quot;&gt;&lt;br&gt;&lt;/pre&gt;" style="whiteSpace=wrap;html=1;gradientColor=none;imageWidth=24;rounded=0;shadow=0;sketch=0;" vertex="1" parent="189">
                    <mxGeometry x="407.5" width="200" height="580" as="geometry"/>
                </mxCell>
                <mxCell id="184" value="&lt;span&gt;Stake Addresses&lt;/span&gt;&lt;span&gt;&lt;br&gt;&lt;/span&gt;" style="whiteSpace=wrap;html=1;fontSize=21;" vertex="1" parent="189">
                    <mxGeometry width="200" height="80" as="geometry"/>
                </mxCell>
                <mxCell id="185" value="&lt;span&gt;Stake Amounts&lt;/span&gt;&lt;span&gt;&lt;br&gt;&lt;/span&gt;" style="whiteSpace=wrap;html=1;fontSize=21;" vertex="1" parent="189">
                    <mxGeometry x="407.5" width="202" height="80" as="geometry"/>
                </mxCell>
                <mxCell id="190" value="&lt;span&gt;0x000&lt;/span&gt;&lt;span&gt;&lt;br&gt;&lt;/span&gt;" style="whiteSpace=wrap;html=1;fontSize=21;" vertex="1" parent="189">
                    <mxGeometry y="79.99813953488372" width="200" height="50" as="geometry"/>
                </mxCell>
                <mxCell id="191" value="&lt;span&gt;0xa52&lt;/span&gt;&lt;span&gt;&lt;br&gt;&lt;/span&gt;" style="whiteSpace=wrap;html=1;fontSize=21;" vertex="1" parent="189">
                    <mxGeometry y="129.9972093023256" width="200" height="50" as="geometry"/>
                </mxCell>
                <mxCell id="192" value="&lt;span&gt;0x0fb&lt;/span&gt;&lt;span&gt;&lt;br&gt;&lt;/span&gt;" style="whiteSpace=wrap;html=1;fontSize=21;" vertex="1" parent="189">
                    <mxGeometry y="179.99627906976744" width="200" height="50" as="geometry"/>
                </mxCell>
                <mxCell id="193" value="&lt;span&gt;0x001&lt;/span&gt;&lt;span&gt;&lt;br&gt;&lt;/span&gt;" style="whiteSpace=wrap;html=1;fontSize=21;" vertex="1" parent="189">
                    <mxGeometry y="229.9953488372093" width="200" height="50" as="geometry"/>
                </mxCell>
                <mxCell id="194" value="&lt;span&gt;0xd55&lt;/span&gt;&lt;span&gt;&lt;br&gt;&lt;/span&gt;" style="whiteSpace=wrap;html=1;fontSize=21;" vertex="1" parent="189">
                    <mxGeometry y="279.9981395348837" width="200" height="50" as="geometry"/>
                </mxCell>
                <mxCell id="195" value="&lt;span&gt;0x902&lt;/span&gt;&lt;span&gt;&lt;br&gt;&lt;/span&gt;" style="whiteSpace=wrap;html=1;fontSize=21;" vertex="1" parent="189">
                    <mxGeometry y="329.99720930232564" width="200" height="50" as="geometry"/>
                </mxCell>
                <mxCell id="196" value="&lt;span&gt;0x771&lt;/span&gt;&lt;span&gt;&lt;br&gt;&lt;/span&gt;" style="whiteSpace=wrap;html=1;fontSize=21;" vertex="1" parent="189">
                    <mxGeometry y="379.9962790697674" width="200" height="50" as="geometry"/>
                </mxCell>
                <mxCell id="197" value="&lt;span&gt;0xcb4&lt;/span&gt;&lt;span&gt;&lt;br&gt;&lt;/span&gt;" style="whiteSpace=wrap;html=1;fontSize=21;" vertex="1" parent="189">
                    <mxGeometry y="429.99534883720935" width="200" height="50" as="geometry"/>
                </mxCell>
                <mxCell id="202" value="&lt;span&gt;0x902&lt;/span&gt;&lt;span&gt;&lt;br&gt;&lt;/span&gt;" style="whiteSpace=wrap;html=1;fontSize=21;" vertex="1" parent="189">
                    <mxGeometry y="529.9972093023256" width="200" height="50" as="geometry"/>
                </mxCell>
                <mxCell id="201" value="&lt;span&gt;0xd55&lt;/span&gt;&lt;span&gt;&lt;br&gt;&lt;/span&gt;" style="whiteSpace=wrap;html=1;fontSize=21;" vertex="1" parent="189">
                    <mxGeometry y="479.9981395348837" width="200" height="50" as="geometry"/>
                </mxCell>
                <mxCell id="206" value="&lt;span&gt;0&lt;/span&gt;&lt;span&gt;&lt;br&gt;&lt;/span&gt;" style="whiteSpace=wrap;html=1;fontSize=21;" vertex="1" parent="189">
                    <mxGeometry x="407.5" y="79.9981395348837" width="200" height="50" as="geometry"/>
                </mxCell>
                <mxCell id="207" value="&lt;span&gt;10&lt;/span&gt;&lt;span&gt;&lt;br&gt;&lt;/span&gt;" style="whiteSpace=wrap;html=1;fontSize=21;" vertex="1" parent="189">
                    <mxGeometry x="407.5" y="129.99720930232553" width="200" height="50" as="geometry"/>
                </mxCell>
                <mxCell id="208" value="&lt;span&gt;87&lt;/span&gt;&lt;span&gt;&lt;br&gt;&lt;/span&gt;" style="whiteSpace=wrap;html=1;fontSize=21;" vertex="1" parent="189">
                    <mxGeometry x="407.5" y="179.99627906976735" width="200" height="50" as="geometry"/>
                </mxCell>
                <mxCell id="209" value="&lt;span&gt;3&lt;/span&gt;&lt;span&gt;&lt;br&gt;&lt;/span&gt;" style="whiteSpace=wrap;html=1;fontSize=21;" vertex="1" parent="189">
                    <mxGeometry x="407.5" y="229.9953488372093" width="200" height="50" as="geometry"/>
                </mxCell>
                <mxCell id="210" value="&lt;span&gt;994&lt;/span&gt;&lt;span&gt;&lt;br&gt;&lt;/span&gt;" style="whiteSpace=wrap;html=1;fontSize=21;" vertex="1" parent="189">
                    <mxGeometry x="407.5" y="279.9981395348836" width="200" height="50" as="geometry"/>
                </mxCell>
                <mxCell id="211" value="&lt;span&gt;10004&lt;/span&gt;&lt;span&gt;&lt;br&gt;&lt;/span&gt;" style="whiteSpace=wrap;html=1;fontSize=21;" vertex="1" parent="189">
                    <mxGeometry x="407.5" y="329.99720930232564" width="200" height="50" as="geometry"/>
                </mxCell>
                <mxCell id="212" value="&lt;span&gt;89&lt;/span&gt;&lt;span&gt;&lt;br&gt;&lt;/span&gt;" style="whiteSpace=wrap;html=1;fontSize=21;" vertex="1" parent="189">
                    <mxGeometry x="407.5" y="379.99627906976735" width="200" height="50" as="geometry"/>
                </mxCell>
                <mxCell id="213" value="&lt;span&gt;54&lt;/span&gt;&lt;span&gt;&lt;br&gt;&lt;/span&gt;" style="whiteSpace=wrap;html=1;fontSize=21;" vertex="1" parent="189">
                    <mxGeometry x="407.5" y="429.9953488372093" width="200" height="50" as="geometry"/>
                </mxCell>
                <mxCell id="214" value="&lt;span&gt;444455&lt;/span&gt;&lt;span&gt;&lt;br&gt;&lt;/span&gt;" style="whiteSpace=wrap;html=1;fontSize=21;" vertex="1" parent="189">
                    <mxGeometry x="407.5" y="529.9972093023257" width="200" height="50" as="geometry"/>
                </mxCell>
                <mxCell id="215" value="&lt;span&gt;95963&lt;br&gt;&lt;/span&gt;" style="whiteSpace=wrap;html=1;fontSize=21;" vertex="1" parent="189">
                    <mxGeometry x="407.5" y="479.9981395348836" width="200" height="50" as="geometry"/>
                </mxCell>
                <mxCell id="181" value="&lt;div style=&quot;font-size: 21px&quot;&gt;&lt;span&gt;Total (active) Stakers&lt;/span&gt;&lt;br&gt;&lt;/div&gt;" style="whiteSpace=wrap;html=1;" vertex="1" parent="189">
                    <mxGeometry y="480" width="610" height="36.28" as="geometry"/>
                </mxCell>
            </root>
        </mxGraphModel>
    </diagram>
</mxfile>